G04 EAGLE Gerber RS-274X export*
G75*
%MOMM*%
%FSLAX34Y34*%
%LPD*%
%IN*%
%IPPOS*%
%AMOC8*
5,1,8,0,0,1.08239X$1,22.5*%
G01*
%ADD10C,0.254000*%


D10*
X760476Y1016D02*
X1326080Y3556D01*
X1327350Y1004826D01*
X761492Y1004572D01*
X760476Y1016D01*
X1315212Y26171D02*
X1315134Y25176D01*
X1314978Y24190D01*
X1314745Y23220D01*
X1314436Y22271D01*
X1314054Y21349D01*
X1313601Y20460D01*
X1313080Y19609D01*
X1312493Y18801D01*
X1311845Y18043D01*
X1311139Y17337D01*
X1310381Y16689D01*
X1309573Y16102D01*
X1308722Y15581D01*
X1307833Y15128D01*
X1306911Y14746D01*
X1305962Y14437D01*
X1304992Y14204D01*
X1304006Y14048D01*
X1303011Y13970D01*
X1302013Y13970D01*
X1301018Y14048D01*
X1300032Y14204D01*
X1299062Y14437D01*
X1298113Y14746D01*
X1297191Y15128D01*
X1296302Y15581D01*
X1295451Y16102D01*
X1294643Y16689D01*
X1293885Y17337D01*
X1293179Y18043D01*
X1292531Y18801D01*
X1291944Y19609D01*
X1291423Y20460D01*
X1290970Y21349D01*
X1290588Y22271D01*
X1290279Y23220D01*
X1290046Y24190D01*
X1289890Y25176D01*
X1289812Y26171D01*
X1289812Y27169D01*
X1289890Y28164D01*
X1290046Y29150D01*
X1290279Y30120D01*
X1290588Y31069D01*
X1290970Y31991D01*
X1291423Y32880D01*
X1291944Y33731D01*
X1292531Y34539D01*
X1293179Y35297D01*
X1293885Y36003D01*
X1294643Y36651D01*
X1295451Y37238D01*
X1296302Y37759D01*
X1297191Y38212D01*
X1298113Y38594D01*
X1299062Y38903D01*
X1300032Y39136D01*
X1301018Y39292D01*
X1302013Y39370D01*
X1303011Y39370D01*
X1304006Y39292D01*
X1304992Y39136D01*
X1305962Y38903D01*
X1306911Y38594D01*
X1307833Y38212D01*
X1308722Y37759D01*
X1309573Y37238D01*
X1310381Y36651D01*
X1311139Y36003D01*
X1311845Y35297D01*
X1312493Y34539D01*
X1313080Y33731D01*
X1313601Y32880D01*
X1314054Y31991D01*
X1314436Y31069D01*
X1314745Y30120D01*
X1314978Y29150D01*
X1315134Y28164D01*
X1315212Y27169D01*
X1315212Y26171D01*
X1318006Y983243D02*
X1317928Y982248D01*
X1317772Y981262D01*
X1317539Y980292D01*
X1317230Y979343D01*
X1316848Y978421D01*
X1316395Y977532D01*
X1315874Y976681D01*
X1315287Y975873D01*
X1314639Y975115D01*
X1313933Y974409D01*
X1313175Y973761D01*
X1312367Y973174D01*
X1311516Y972653D01*
X1310627Y972200D01*
X1309705Y971818D01*
X1308756Y971509D01*
X1307786Y971276D01*
X1306800Y971120D01*
X1305805Y971042D01*
X1304807Y971042D01*
X1303812Y971120D01*
X1302826Y971276D01*
X1301856Y971509D01*
X1300907Y971818D01*
X1299985Y972200D01*
X1299096Y972653D01*
X1298245Y973174D01*
X1297437Y973761D01*
X1296679Y974409D01*
X1295973Y975115D01*
X1295325Y975873D01*
X1294738Y976681D01*
X1294217Y977532D01*
X1293764Y978421D01*
X1293382Y979343D01*
X1293073Y980292D01*
X1292840Y981262D01*
X1292684Y982248D01*
X1292606Y983243D01*
X1292606Y984241D01*
X1292684Y985236D01*
X1292840Y986222D01*
X1293073Y987192D01*
X1293382Y988141D01*
X1293764Y989063D01*
X1294217Y989952D01*
X1294738Y990803D01*
X1295325Y991611D01*
X1295973Y992369D01*
X1296679Y993075D01*
X1297437Y993723D01*
X1298245Y994310D01*
X1299096Y994831D01*
X1299985Y995284D01*
X1300907Y995666D01*
X1301856Y995975D01*
X1302826Y996208D01*
X1303812Y996364D01*
X1304807Y996442D01*
X1305805Y996442D01*
X1306800Y996364D01*
X1307786Y996208D01*
X1308756Y995975D01*
X1309705Y995666D01*
X1310627Y995284D01*
X1311516Y994831D01*
X1312367Y994310D01*
X1313175Y993723D01*
X1313933Y993075D01*
X1314639Y992369D01*
X1315287Y991611D01*
X1315874Y990803D01*
X1316395Y989952D01*
X1316848Y989063D01*
X1317230Y988141D01*
X1317539Y987192D01*
X1317772Y986222D01*
X1317928Y985236D01*
X1318006Y984241D01*
X1318006Y983243D01*
X800354Y31505D02*
X800276Y30510D01*
X800120Y29524D01*
X799887Y28554D01*
X799578Y27605D01*
X799196Y26683D01*
X798743Y25794D01*
X798222Y24943D01*
X797635Y24135D01*
X796987Y23377D01*
X796281Y22671D01*
X795523Y22023D01*
X794715Y21436D01*
X793864Y20915D01*
X792975Y20462D01*
X792053Y20080D01*
X791104Y19771D01*
X790134Y19538D01*
X789148Y19382D01*
X788153Y19304D01*
X787155Y19304D01*
X786160Y19382D01*
X785174Y19538D01*
X784204Y19771D01*
X783255Y20080D01*
X782333Y20462D01*
X781444Y20915D01*
X780593Y21436D01*
X779785Y22023D01*
X779027Y22671D01*
X778321Y23377D01*
X777673Y24135D01*
X777086Y24943D01*
X776565Y25794D01*
X776112Y26683D01*
X775730Y27605D01*
X775421Y28554D01*
X775188Y29524D01*
X775032Y30510D01*
X774954Y31505D01*
X774954Y32503D01*
X775032Y33498D01*
X775188Y34484D01*
X775421Y35454D01*
X775730Y36403D01*
X776112Y37325D01*
X776565Y38214D01*
X777086Y39065D01*
X777673Y39873D01*
X778321Y40631D01*
X779027Y41337D01*
X779785Y41985D01*
X780593Y42572D01*
X781444Y43093D01*
X782333Y43546D01*
X783255Y43928D01*
X784204Y44237D01*
X785174Y44470D01*
X786160Y44626D01*
X787155Y44704D01*
X788153Y44704D01*
X789148Y44626D01*
X790134Y44470D01*
X791104Y44237D01*
X792053Y43928D01*
X792975Y43546D01*
X793864Y43093D01*
X794715Y42572D01*
X795523Y41985D01*
X796281Y41337D01*
X796987Y40631D01*
X797635Y39873D01*
X798222Y39065D01*
X798743Y38214D01*
X799196Y37325D01*
X799578Y36403D01*
X799887Y35454D01*
X800120Y34484D01*
X800276Y33498D01*
X800354Y32503D01*
X800354Y31505D01*
X796798Y982989D02*
X796720Y981994D01*
X796564Y981008D01*
X796331Y980038D01*
X796022Y979089D01*
X795640Y978167D01*
X795187Y977278D01*
X794666Y976427D01*
X794079Y975619D01*
X793431Y974861D01*
X792725Y974155D01*
X791967Y973507D01*
X791159Y972920D01*
X790308Y972399D01*
X789419Y971946D01*
X788497Y971564D01*
X787548Y971255D01*
X786578Y971022D01*
X785592Y970866D01*
X784597Y970788D01*
X783599Y970788D01*
X782604Y970866D01*
X781618Y971022D01*
X780648Y971255D01*
X779699Y971564D01*
X778777Y971946D01*
X777888Y972399D01*
X777037Y972920D01*
X776229Y973507D01*
X775471Y974155D01*
X774765Y974861D01*
X774117Y975619D01*
X773530Y976427D01*
X773009Y977278D01*
X772556Y978167D01*
X772174Y979089D01*
X771865Y980038D01*
X771632Y981008D01*
X771476Y981994D01*
X771398Y982989D01*
X771398Y983987D01*
X771476Y984982D01*
X771632Y985968D01*
X771865Y986938D01*
X772174Y987887D01*
X772556Y988809D01*
X773009Y989698D01*
X773530Y990549D01*
X774117Y991357D01*
X774765Y992115D01*
X775471Y992821D01*
X776229Y993469D01*
X777037Y994056D01*
X777888Y994577D01*
X778777Y995030D01*
X779699Y995412D01*
X780648Y995721D01*
X781618Y995954D01*
X782604Y996110D01*
X783599Y996188D01*
X784597Y996188D01*
X785592Y996110D01*
X786578Y995954D01*
X787548Y995721D01*
X788497Y995412D01*
X789419Y995030D01*
X790308Y994577D01*
X791159Y994056D01*
X791967Y993469D01*
X792725Y992821D01*
X793431Y992115D01*
X794079Y991357D01*
X794666Y990549D01*
X795187Y989698D01*
X795640Y988809D01*
X796022Y987887D01*
X796331Y986938D01*
X796564Y985968D01*
X796720Y984982D01*
X796798Y983987D01*
X796798Y982989D01*
X1375632Y794258D02*
X1374553Y794329D01*
X1373481Y794470D01*
X1372421Y794681D01*
X1371377Y794960D01*
X1370353Y795308D01*
X1369355Y795722D01*
X1368385Y796200D01*
X1367449Y796740D01*
X1366550Y797341D01*
X1365693Y797999D01*
X1364880Y798712D01*
X1364116Y799476D01*
X1363403Y800289D01*
X1362745Y801146D01*
X1362144Y802045D01*
X1361604Y802981D01*
X1361126Y803951D01*
X1360712Y804949D01*
X1360364Y805973D01*
X1360085Y807017D01*
X1359874Y808077D01*
X1359733Y809149D01*
X1359662Y810228D01*
X1359662Y811308D01*
X1359733Y812387D01*
X1359874Y813459D01*
X1360085Y814519D01*
X1360364Y815563D01*
X1360712Y816587D01*
X1361126Y817585D01*
X1361604Y818555D01*
X1362144Y819491D01*
X1362745Y820390D01*
X1363403Y821247D01*
X1364116Y822060D01*
X1364880Y822825D01*
X1365693Y823537D01*
X1366550Y824195D01*
X1367449Y824796D01*
X1368385Y825336D01*
X1369355Y825814D01*
X1370353Y826228D01*
X1371377Y826576D01*
X1372421Y826855D01*
X1373481Y827066D01*
X1374553Y827207D01*
X1375632Y827278D01*
X1376712Y827278D01*
X1377791Y827207D01*
X1378863Y827066D01*
X1379923Y826855D01*
X1380967Y826576D01*
X1381991Y826228D01*
X1382989Y825814D01*
X1383959Y825336D01*
X1384895Y824796D01*
X1385794Y824195D01*
X1386651Y823537D01*
X1387464Y822825D01*
X1388229Y822060D01*
X1388941Y821247D01*
X1389599Y820390D01*
X1390200Y819491D01*
X1390740Y818555D01*
X1391218Y817585D01*
X1391632Y816587D01*
X1391980Y815563D01*
X1392259Y814519D01*
X1392470Y813459D01*
X1392611Y812387D01*
X1392682Y811308D01*
X1392682Y810228D01*
X1392611Y809149D01*
X1392470Y808077D01*
X1392259Y807017D01*
X1391980Y805973D01*
X1391632Y804949D01*
X1391218Y803951D01*
X1390740Y802981D01*
X1390200Y802045D01*
X1389599Y801146D01*
X1388941Y800289D01*
X1388229Y799476D01*
X1387464Y798712D01*
X1386651Y797999D01*
X1385794Y797341D01*
X1384895Y796740D01*
X1383959Y796200D01*
X1382989Y795722D01*
X1381991Y795308D01*
X1380967Y794960D01*
X1379923Y794681D01*
X1378863Y794470D01*
X1377791Y794329D01*
X1376712Y794258D01*
X1375632Y794258D01*
M02*
