G04 EAGLE Gerber RS-274X export*
G75*
%MOMM*%
%FSLAX34Y34*%
%LPD*%
%INSoldermask Bottom*%
%IPPOS*%
%AMOC8*
5,1,8,0,0,1.08239X$1,22.5*%
G01*
%ADD10C,2.743200*%
%ADD11C,1.727200*%
%ADD12R,1.711200X1.711200*%
%ADD13C,1.711200*%
%ADD14C,1.993900*%
%ADD15C,0.339959*%
%ADD16C,0.393431*%
%ADD17R,1.503200X1.703200*%
%ADD18P,1.869504X8X202.500000*%
%ADD19R,1.503200X1.803200*%
%ADD20R,1.703200X1.503200*%
%ADD21C,1.524000*%
%ADD22C,1.879600*%
%ADD23C,3.505200*%
%ADD24C,0.959600*%
%ADD25C,1.503200*%


D10*
X1302512Y26670D03*
X1305306Y983742D03*
X787654Y32004D03*
X784098Y983488D03*
D11*
X1124966Y960120D02*
X1140206Y960120D01*
X1140206Y934720D02*
X1124966Y934720D01*
X1124966Y909320D02*
X1140206Y909320D01*
X1140206Y883920D02*
X1124966Y883920D01*
X1124966Y858520D02*
X1140206Y858520D01*
X1140206Y833120D02*
X1124966Y833120D01*
D12*
X852904Y31390D03*
D13*
X912904Y31390D03*
X792904Y367390D03*
X972904Y367390D03*
D14*
X1080954Y44768D02*
X1080954Y26861D01*
X1130954Y26861D02*
X1130954Y44768D01*
X1180954Y44768D02*
X1180954Y26861D01*
X1230954Y26861D02*
X1230954Y44768D01*
D11*
X1293114Y934974D02*
X1308354Y934974D01*
X1308354Y909574D02*
X1293114Y909574D01*
X1293114Y884174D02*
X1308354Y884174D01*
X1181100Y971550D02*
X1181100Y986790D01*
X1206500Y986790D02*
X1206500Y971550D01*
X1231900Y971550D02*
X1231900Y986790D01*
X1290828Y442722D02*
X1306068Y442722D01*
X1306068Y468122D02*
X1290828Y468122D01*
X1290828Y493522D02*
X1306068Y493522D01*
X1305814Y523748D02*
X1290574Y523748D01*
X1290574Y549148D02*
X1305814Y549148D01*
X1305814Y574548D02*
X1290574Y574548D01*
X1290066Y224282D02*
X1305306Y224282D01*
X1305306Y249682D02*
X1290066Y249682D01*
X1290066Y275082D02*
X1305306Y275082D01*
X1305306Y300482D02*
X1290066Y300482D01*
X1290574Y333756D02*
X1305814Y333756D01*
X1305814Y359156D02*
X1290574Y359156D01*
X1290574Y384556D02*
X1305814Y384556D01*
X1305814Y409956D02*
X1290574Y409956D01*
X1181354Y725678D02*
X1181354Y740918D01*
X1155954Y740918D02*
X1155954Y725678D01*
X1130554Y725678D02*
X1130554Y740918D01*
X1105154Y740918D02*
X1105154Y725678D01*
X795528Y660908D02*
X780288Y660908D01*
X780288Y686308D02*
X795528Y686308D01*
X795528Y711708D02*
X780288Y711708D01*
X780288Y737108D02*
X795528Y737108D01*
X795528Y762508D02*
X780288Y762508D01*
X780288Y787908D02*
X795528Y787908D01*
D15*
X825812Y205686D02*
X825812Y193954D01*
X825812Y205686D02*
X833744Y205686D01*
X833744Y193954D01*
X825812Y193954D01*
X825812Y197184D02*
X833744Y197184D01*
X833744Y200414D02*
X825812Y200414D01*
X825812Y203644D02*
X833744Y203644D01*
X848712Y205686D02*
X848712Y193954D01*
X848712Y205686D02*
X856644Y205686D01*
X856644Y193954D01*
X848712Y193954D01*
X848712Y197184D02*
X856644Y197184D01*
X856644Y200414D02*
X848712Y200414D01*
X848712Y203644D02*
X856644Y203644D01*
X871612Y205686D02*
X871612Y193954D01*
X871612Y205686D02*
X879544Y205686D01*
X879544Y193954D01*
X871612Y193954D01*
X871612Y197184D02*
X879544Y197184D01*
X879544Y200414D02*
X871612Y200414D01*
X871612Y203644D02*
X879544Y203644D01*
D16*
X837429Y138519D02*
X837429Y127321D01*
X837429Y138519D02*
X867927Y138519D01*
X867927Y127321D01*
X837429Y127321D01*
X837429Y131058D02*
X867927Y131058D01*
X867927Y134795D02*
X837429Y134795D01*
D17*
X861974Y243078D03*
X880974Y243078D03*
X861466Y284226D03*
X880466Y284226D03*
X826364Y242824D03*
X807364Y242824D03*
X826872Y284480D03*
X807872Y284480D03*
D18*
X844804Y415036D03*
X844804Y440436D03*
X819404Y415036D03*
X819404Y440436D03*
X794004Y415036D03*
X794004Y440436D03*
D19*
X1027278Y512572D03*
X1008278Y512572D03*
X919378Y868680D03*
X938378Y868680D03*
D17*
X826922Y323596D03*
X845922Y323596D03*
D20*
X961644Y223418D03*
X961644Y242418D03*
X867156Y651866D03*
X867156Y632866D03*
D17*
X1008786Y480060D03*
X1027786Y480060D03*
D21*
X1002030Y866648D03*
X1002030Y914908D03*
D11*
X796544Y857504D02*
X781304Y857504D01*
X781304Y882904D02*
X796544Y882904D01*
X796544Y908304D02*
X781304Y908304D01*
X781304Y933704D02*
X796544Y933704D01*
D20*
X861822Y864718D03*
X861822Y845718D03*
D11*
X853694Y969518D02*
X853694Y984758D01*
X879094Y984758D02*
X879094Y969518D01*
X904494Y969518D02*
X904494Y984758D01*
X929894Y984758D02*
X929894Y969518D01*
X955294Y969518D02*
X955294Y984758D01*
X1290574Y664464D02*
X1305814Y664464D01*
X1305814Y639064D02*
X1290574Y639064D01*
X1290574Y613664D02*
X1305814Y613664D01*
D22*
X1209294Y836168D02*
X1192530Y836168D01*
X1192530Y810768D02*
X1209294Y810768D01*
X1209294Y785368D02*
X1192530Y785368D01*
D23*
X1376172Y810768D03*
D24*
X964438Y785368D03*
X951738Y750824D03*
X949198Y734822D03*
X978154Y748538D03*
X1037336Y684530D03*
X850138Y633222D03*
X954024Y535178D03*
X868680Y331978D03*
X923290Y271018D03*
X843280Y902208D03*
X918464Y822198D03*
X959358Y943610D03*
X1001014Y660908D03*
X996442Y699516D03*
X1205992Y753618D03*
X1044956Y462534D03*
X1020064Y427482D03*
X1075944Y552196D03*
X1297432Y724154D03*
D25*
X873506Y100330D03*
D24*
X1219708Y886968D03*
X1261618Y886714D03*
X1261872Y703834D03*
X1061974Y420878D03*
X847852Y585724D03*
X868680Y449072D03*
X868934Y421132D03*
X871982Y304038D03*
X877570Y756666D03*
X901065Y558927D03*
X924052Y768096D03*
X1044448Y882904D03*
X929132Y760222D03*
X891540Y767670D03*
X1131062Y774446D03*
X970612Y827962D03*
X1219454Y865886D03*
X930148Y673608D03*
X1065276Y624586D03*
X1222248Y752348D03*
X1252728Y906780D03*
X1241044Y928370D03*
X1089660Y652018D03*
X1172718Y573278D03*
X1083818Y641096D03*
X1164844Y559054D03*
X869315Y744347D03*
X899922Y602488D03*
X922909Y682625D03*
X850646Y690372D03*
X878840Y838454D03*
X879094Y652018D03*
X994664Y482346D03*
X923290Y927100D03*
X840486Y739648D03*
X1171702Y656590D03*
X1167892Y645668D03*
X959104Y617728D03*
X1199388Y570992D03*
X1073658Y633476D03*
X1155446Y552196D03*
X1086104Y447548D03*
X981710Y449072D03*
X861822Y807466D03*
X811022Y771906D03*
X811784Y743966D03*
X813308Y728980D03*
X929132Y845566D03*
X1034034Y588264D03*
X1019302Y765556D03*
X1005586Y752094D03*
X1010412Y839978D03*
X851662Y748284D03*
X816356Y784606D03*
X824230Y800354D03*
X882396Y701802D03*
X1006856Y734314D03*
X1039114Y735076D03*
M02*
