G04 EAGLE Gerber RS-274X export*
G75*
%MOMM*%
%FSLAX34Y34*%
%LPD*%
%INSoldermask Top*%
%IPPOS*%
%AMOC8*
5,1,8,0,0,1.08239X$1,22.5*%
G01*
%ADD10C,2.743200*%
%ADD11C,1.727200*%
%ADD12R,1.711200X1.711200*%
%ADD13C,1.711200*%
%ADD14C,1.993900*%
%ADD15C,0.343072*%
%ADD16R,1.553200X0.603200*%
%ADD17R,1.603200X1.803200*%
%ADD18R,1.503200X1.653200*%
%ADD19R,2.103200X2.103200*%
%ADD20R,1.503200X1.803200*%
%ADD21R,1.403200X1.403200*%
%ADD22P,1.869504X8X202.500000*%
%ADD23C,1.524000*%
%ADD24R,1.703200X1.503200*%
%ADD25R,1.803200X1.503200*%
%ADD26C,1.473200*%
%ADD27C,1.879600*%
%ADD28C,3.505200*%
%ADD29C,0.959600*%
%ADD30C,1.503200*%


D10*
X1302512Y26670D03*
X1305306Y983742D03*
X787654Y32004D03*
X784098Y983488D03*
D11*
X1124966Y960120D02*
X1140206Y960120D01*
X1140206Y934720D02*
X1124966Y934720D01*
X1124966Y909320D02*
X1140206Y909320D01*
X1140206Y883920D02*
X1124966Y883920D01*
X1124966Y858520D02*
X1140206Y858520D01*
X1140206Y833120D02*
X1124966Y833120D01*
D12*
X852904Y31390D03*
D13*
X912904Y31390D03*
X792904Y367390D03*
X972904Y367390D03*
D14*
X1080954Y44768D02*
X1080954Y26861D01*
X1130954Y26861D02*
X1130954Y44768D01*
X1180954Y44768D02*
X1180954Y26861D01*
X1230954Y26861D02*
X1230954Y44768D01*
D11*
X1293114Y934974D02*
X1308354Y934974D01*
X1308354Y909574D02*
X1293114Y909574D01*
X1293114Y884174D02*
X1308354Y884174D01*
X1181100Y971550D02*
X1181100Y986790D01*
X1206500Y986790D02*
X1206500Y971550D01*
X1231900Y971550D02*
X1231900Y986790D01*
X1290828Y442722D02*
X1306068Y442722D01*
X1306068Y468122D02*
X1290828Y468122D01*
X1290828Y493522D02*
X1306068Y493522D01*
X1305814Y523748D02*
X1290574Y523748D01*
X1290574Y549148D02*
X1305814Y549148D01*
X1305814Y574548D02*
X1290574Y574548D01*
X1290066Y224282D02*
X1305306Y224282D01*
X1305306Y249682D02*
X1290066Y249682D01*
X1290066Y275082D02*
X1305306Y275082D01*
X1305306Y300482D02*
X1290066Y300482D01*
X1290574Y333756D02*
X1305814Y333756D01*
X1305814Y359156D02*
X1290574Y359156D01*
X1290574Y384556D02*
X1305814Y384556D01*
X1305814Y409956D02*
X1290574Y409956D01*
X1181354Y725678D02*
X1181354Y740918D01*
X1155954Y740918D02*
X1155954Y725678D01*
X1130554Y725678D02*
X1130554Y740918D01*
X1105154Y740918D02*
X1105154Y725678D01*
X795528Y660908D02*
X780288Y660908D01*
X780288Y686308D02*
X795528Y686308D01*
X795528Y711708D02*
X780288Y711708D01*
X780288Y737108D02*
X795528Y737108D01*
X795528Y762508D02*
X780288Y762508D01*
X780288Y787908D02*
X795528Y787908D01*
D15*
X984405Y734947D02*
X998607Y734947D01*
X998607Y733545D01*
X984405Y733545D01*
X984405Y734947D01*
X984405Y739947D02*
X998607Y739947D01*
X998607Y738545D01*
X984405Y738545D01*
X984405Y739947D01*
X984405Y744947D02*
X998607Y744947D01*
X998607Y743545D01*
X984405Y743545D01*
X984405Y744947D01*
X984405Y749947D02*
X998607Y749947D01*
X998607Y748545D01*
X984405Y748545D01*
X984405Y749947D01*
X984405Y754947D02*
X998607Y754947D01*
X998607Y753545D01*
X984405Y753545D01*
X984405Y754947D01*
X984405Y759947D02*
X998607Y759947D01*
X998607Y758545D01*
X984405Y758545D01*
X984405Y759947D01*
X984405Y764947D02*
X998607Y764947D01*
X998607Y763545D01*
X984405Y763545D01*
X984405Y764947D01*
X984405Y769947D02*
X998607Y769947D01*
X998607Y768545D01*
X984405Y768545D01*
X984405Y769947D01*
X984405Y774947D02*
X998607Y774947D01*
X998607Y773545D01*
X984405Y773545D01*
X984405Y774947D01*
X984405Y779947D02*
X998607Y779947D01*
X998607Y778545D01*
X984405Y778545D01*
X984405Y779947D01*
X984405Y784947D02*
X998607Y784947D01*
X998607Y783545D01*
X984405Y783545D01*
X984405Y784947D01*
X984405Y789947D02*
X998607Y789947D01*
X998607Y788545D01*
X984405Y788545D01*
X984405Y789947D01*
X977907Y810647D02*
X976505Y810647D01*
X977907Y810647D02*
X977907Y796445D01*
X976505Y796445D01*
X976505Y810647D01*
X976505Y799704D02*
X977907Y799704D01*
X977907Y802963D02*
X976505Y802963D01*
X976505Y806222D02*
X977907Y806222D01*
X977907Y809481D02*
X976505Y809481D01*
X972907Y810647D02*
X971505Y810647D01*
X972907Y810647D02*
X972907Y796445D01*
X971505Y796445D01*
X971505Y810647D01*
X971505Y799704D02*
X972907Y799704D01*
X972907Y802963D02*
X971505Y802963D01*
X971505Y806222D02*
X972907Y806222D01*
X972907Y809481D02*
X971505Y809481D01*
X967907Y810647D02*
X966505Y810647D01*
X967907Y810647D02*
X967907Y796445D01*
X966505Y796445D01*
X966505Y810647D01*
X966505Y799704D02*
X967907Y799704D01*
X967907Y802963D02*
X966505Y802963D01*
X966505Y806222D02*
X967907Y806222D01*
X967907Y809481D02*
X966505Y809481D01*
X962907Y810647D02*
X961505Y810647D01*
X962907Y810647D02*
X962907Y796445D01*
X961505Y796445D01*
X961505Y810647D01*
X961505Y799704D02*
X962907Y799704D01*
X962907Y802963D02*
X961505Y802963D01*
X961505Y806222D02*
X962907Y806222D01*
X962907Y809481D02*
X961505Y809481D01*
X957907Y810647D02*
X956505Y810647D01*
X957907Y810647D02*
X957907Y796445D01*
X956505Y796445D01*
X956505Y810647D01*
X956505Y799704D02*
X957907Y799704D01*
X957907Y802963D02*
X956505Y802963D01*
X956505Y806222D02*
X957907Y806222D01*
X957907Y809481D02*
X956505Y809481D01*
X952907Y810647D02*
X951505Y810647D01*
X952907Y810647D02*
X952907Y796445D01*
X951505Y796445D01*
X951505Y810647D01*
X951505Y799704D02*
X952907Y799704D01*
X952907Y802963D02*
X951505Y802963D01*
X951505Y806222D02*
X952907Y806222D01*
X952907Y809481D02*
X951505Y809481D01*
X947907Y810647D02*
X946505Y810647D01*
X947907Y810647D02*
X947907Y796445D01*
X946505Y796445D01*
X946505Y810647D01*
X946505Y799704D02*
X947907Y799704D01*
X947907Y802963D02*
X946505Y802963D01*
X946505Y806222D02*
X947907Y806222D01*
X947907Y809481D02*
X946505Y809481D01*
X942907Y810647D02*
X941505Y810647D01*
X942907Y810647D02*
X942907Y796445D01*
X941505Y796445D01*
X941505Y810647D01*
X941505Y799704D02*
X942907Y799704D01*
X942907Y802963D02*
X941505Y802963D01*
X941505Y806222D02*
X942907Y806222D01*
X942907Y809481D02*
X941505Y809481D01*
X937907Y810647D02*
X936505Y810647D01*
X937907Y810647D02*
X937907Y796445D01*
X936505Y796445D01*
X936505Y810647D01*
X936505Y799704D02*
X937907Y799704D01*
X937907Y802963D02*
X936505Y802963D01*
X936505Y806222D02*
X937907Y806222D01*
X937907Y809481D02*
X936505Y809481D01*
X932907Y810647D02*
X931505Y810647D01*
X932907Y810647D02*
X932907Y796445D01*
X931505Y796445D01*
X931505Y810647D01*
X931505Y799704D02*
X932907Y799704D01*
X932907Y802963D02*
X931505Y802963D01*
X931505Y806222D02*
X932907Y806222D01*
X932907Y809481D02*
X931505Y809481D01*
X927907Y810647D02*
X926505Y810647D01*
X927907Y810647D02*
X927907Y796445D01*
X926505Y796445D01*
X926505Y810647D01*
X926505Y799704D02*
X927907Y799704D01*
X927907Y802963D02*
X926505Y802963D01*
X926505Y806222D02*
X927907Y806222D01*
X927907Y809481D02*
X926505Y809481D01*
X922907Y810647D02*
X921505Y810647D01*
X922907Y810647D02*
X922907Y796445D01*
X921505Y796445D01*
X921505Y810647D01*
X921505Y799704D02*
X922907Y799704D01*
X922907Y802963D02*
X921505Y802963D01*
X921505Y806222D02*
X922907Y806222D01*
X922907Y809481D02*
X921505Y809481D01*
X915007Y789947D02*
X900805Y789947D01*
X915007Y789947D02*
X915007Y788545D01*
X900805Y788545D01*
X900805Y789947D01*
X900805Y784947D02*
X915007Y784947D01*
X915007Y783545D01*
X900805Y783545D01*
X900805Y784947D01*
X900805Y779947D02*
X915007Y779947D01*
X915007Y778545D01*
X900805Y778545D01*
X900805Y779947D01*
X900805Y774947D02*
X915007Y774947D01*
X915007Y773545D01*
X900805Y773545D01*
X900805Y774947D01*
X900805Y769947D02*
X915007Y769947D01*
X915007Y768545D01*
X900805Y768545D01*
X900805Y769947D01*
X900805Y764947D02*
X915007Y764947D01*
X915007Y763545D01*
X900805Y763545D01*
X900805Y764947D01*
X900805Y759947D02*
X915007Y759947D01*
X915007Y758545D01*
X900805Y758545D01*
X900805Y759947D01*
X900805Y754947D02*
X915007Y754947D01*
X915007Y753545D01*
X900805Y753545D01*
X900805Y754947D01*
X900805Y749947D02*
X915007Y749947D01*
X915007Y748545D01*
X900805Y748545D01*
X900805Y749947D01*
X900805Y744947D02*
X915007Y744947D01*
X915007Y743545D01*
X900805Y743545D01*
X900805Y744947D01*
X900805Y739947D02*
X915007Y739947D01*
X915007Y738545D01*
X900805Y738545D01*
X900805Y739947D01*
X900805Y734947D02*
X915007Y734947D01*
X915007Y733545D01*
X900805Y733545D01*
X900805Y734947D01*
X921505Y727047D02*
X922907Y727047D01*
X922907Y712845D01*
X921505Y712845D01*
X921505Y727047D01*
X921505Y716104D02*
X922907Y716104D01*
X922907Y719363D02*
X921505Y719363D01*
X921505Y722622D02*
X922907Y722622D01*
X922907Y725881D02*
X921505Y725881D01*
X926505Y727047D02*
X927907Y727047D01*
X927907Y712845D01*
X926505Y712845D01*
X926505Y727047D01*
X926505Y716104D02*
X927907Y716104D01*
X927907Y719363D02*
X926505Y719363D01*
X926505Y722622D02*
X927907Y722622D01*
X927907Y725881D02*
X926505Y725881D01*
X931505Y727047D02*
X932907Y727047D01*
X932907Y712845D01*
X931505Y712845D01*
X931505Y727047D01*
X931505Y716104D02*
X932907Y716104D01*
X932907Y719363D02*
X931505Y719363D01*
X931505Y722622D02*
X932907Y722622D01*
X932907Y725881D02*
X931505Y725881D01*
X936505Y727047D02*
X937907Y727047D01*
X937907Y712845D01*
X936505Y712845D01*
X936505Y727047D01*
X936505Y716104D02*
X937907Y716104D01*
X937907Y719363D02*
X936505Y719363D01*
X936505Y722622D02*
X937907Y722622D01*
X937907Y725881D02*
X936505Y725881D01*
X941505Y727047D02*
X942907Y727047D01*
X942907Y712845D01*
X941505Y712845D01*
X941505Y727047D01*
X941505Y716104D02*
X942907Y716104D01*
X942907Y719363D02*
X941505Y719363D01*
X941505Y722622D02*
X942907Y722622D01*
X942907Y725881D02*
X941505Y725881D01*
X946505Y727047D02*
X947907Y727047D01*
X947907Y712845D01*
X946505Y712845D01*
X946505Y727047D01*
X946505Y716104D02*
X947907Y716104D01*
X947907Y719363D02*
X946505Y719363D01*
X946505Y722622D02*
X947907Y722622D01*
X947907Y725881D02*
X946505Y725881D01*
X951505Y727047D02*
X952907Y727047D01*
X952907Y712845D01*
X951505Y712845D01*
X951505Y727047D01*
X951505Y716104D02*
X952907Y716104D01*
X952907Y719363D02*
X951505Y719363D01*
X951505Y722622D02*
X952907Y722622D01*
X952907Y725881D02*
X951505Y725881D01*
X956505Y727047D02*
X957907Y727047D01*
X957907Y712845D01*
X956505Y712845D01*
X956505Y727047D01*
X956505Y716104D02*
X957907Y716104D01*
X957907Y719363D02*
X956505Y719363D01*
X956505Y722622D02*
X957907Y722622D01*
X957907Y725881D02*
X956505Y725881D01*
X961505Y727047D02*
X962907Y727047D01*
X962907Y712845D01*
X961505Y712845D01*
X961505Y727047D01*
X961505Y716104D02*
X962907Y716104D01*
X962907Y719363D02*
X961505Y719363D01*
X961505Y722622D02*
X962907Y722622D01*
X962907Y725881D02*
X961505Y725881D01*
X966505Y727047D02*
X967907Y727047D01*
X967907Y712845D01*
X966505Y712845D01*
X966505Y727047D01*
X966505Y716104D02*
X967907Y716104D01*
X967907Y719363D02*
X966505Y719363D01*
X966505Y722622D02*
X967907Y722622D01*
X967907Y725881D02*
X966505Y725881D01*
X971505Y727047D02*
X972907Y727047D01*
X972907Y712845D01*
X971505Y712845D01*
X971505Y727047D01*
X971505Y716104D02*
X972907Y716104D01*
X972907Y719363D02*
X971505Y719363D01*
X971505Y722622D02*
X972907Y722622D01*
X972907Y725881D02*
X971505Y725881D01*
X976505Y727047D02*
X977907Y727047D01*
X977907Y712845D01*
X976505Y712845D01*
X976505Y727047D01*
X976505Y716104D02*
X977907Y716104D01*
X977907Y719363D02*
X976505Y719363D01*
X976505Y722622D02*
X977907Y722622D01*
X977907Y725881D02*
X976505Y725881D01*
D16*
X809578Y571800D03*
X809578Y565300D03*
X809578Y558800D03*
X809578Y552300D03*
X809578Y545800D03*
D17*
X807328Y590800D03*
X807328Y526800D03*
D18*
X782828Y524550D03*
X782828Y593050D03*
D19*
X782828Y570800D03*
X782828Y546800D03*
D20*
X858418Y559308D03*
X877418Y559308D03*
X858926Y524510D03*
X877926Y524510D03*
X858418Y596646D03*
X877418Y596646D03*
D21*
X919734Y430616D03*
X919734Y409616D03*
X943864Y430108D03*
X943864Y409108D03*
D20*
X911962Y462788D03*
X892962Y462788D03*
X950620Y461518D03*
X969620Y461518D03*
X1150518Y766318D03*
X1169518Y766318D03*
X1066444Y913130D03*
X1085444Y913130D03*
X1066190Y882904D03*
X1085190Y882904D03*
D22*
X844804Y415036D03*
X844804Y440436D03*
X819404Y415036D03*
X819404Y440436D03*
X794004Y415036D03*
X794004Y440436D03*
D23*
X1002030Y866648D03*
X1002030Y914908D03*
D24*
X952754Y905662D03*
X952754Y924662D03*
X952500Y878180D03*
X952500Y859180D03*
D25*
X905764Y883310D03*
X905764Y902310D03*
D11*
X796544Y857504D02*
X781304Y857504D01*
X781304Y882904D02*
X796544Y882904D01*
X796544Y908304D02*
X781304Y908304D01*
X781304Y933704D02*
X796544Y933704D01*
D26*
X1045210Y769112D03*
X1049020Y736346D03*
X787400Y825754D03*
X1155954Y788670D03*
D11*
X853694Y969518D02*
X853694Y984758D01*
X879094Y984758D02*
X879094Y969518D01*
X904494Y969518D02*
X904494Y984758D01*
X929894Y984758D02*
X929894Y969518D01*
X955294Y969518D02*
X955294Y984758D01*
D26*
X822960Y976884D03*
D11*
X1290574Y664464D02*
X1305814Y664464D01*
X1305814Y639064D02*
X1290574Y639064D01*
X1290574Y613664D02*
X1305814Y613664D01*
D27*
X1209294Y836168D02*
X1192530Y836168D01*
X1192530Y810768D02*
X1209294Y810768D01*
X1209294Y785368D02*
X1192530Y785368D01*
D28*
X1376172Y810768D03*
D29*
X964438Y785368D03*
X951738Y750824D03*
X949198Y734822D03*
X978154Y748538D03*
X1037336Y684530D03*
X850138Y633222D03*
X954024Y535178D03*
X868680Y331978D03*
X923290Y271018D03*
X843280Y902208D03*
X918464Y822198D03*
X959358Y943610D03*
X1001014Y660908D03*
X996442Y699516D03*
X1205992Y753618D03*
X1044956Y462534D03*
X1020064Y427482D03*
X1075944Y552196D03*
X1297432Y724154D03*
D30*
X873506Y100330D03*
D29*
X1219708Y886968D03*
X1261618Y886714D03*
X1261872Y703834D03*
X1061974Y420878D03*
X847852Y585724D03*
X868680Y449072D03*
X868934Y421132D03*
X871982Y304038D03*
X877570Y756666D03*
X901065Y558927D03*
X924052Y768096D03*
X1044448Y882904D03*
X929132Y760222D03*
X891540Y767670D03*
X1131062Y774446D03*
X970612Y827962D03*
X1219454Y865886D03*
X930148Y673608D03*
X1065276Y624586D03*
X1222248Y752348D03*
X1252728Y906780D03*
X1241044Y928370D03*
X1089660Y652018D03*
X1172718Y573278D03*
X1083818Y641096D03*
X1164844Y559054D03*
X869315Y744347D03*
X899922Y602488D03*
X922909Y682625D03*
X850646Y690372D03*
X878840Y838454D03*
X879094Y652018D03*
X994664Y482346D03*
X923290Y927100D03*
X840486Y739648D03*
X1171702Y656590D03*
X1167892Y645668D03*
X959104Y617728D03*
X1199388Y570992D03*
X1073658Y633476D03*
X1155446Y552196D03*
X1086104Y447548D03*
X981710Y449072D03*
X861822Y807466D03*
X811022Y771906D03*
X811784Y743966D03*
X813308Y728980D03*
X929132Y845566D03*
X1034034Y588264D03*
X1019302Y765556D03*
X1005586Y752094D03*
X1010412Y839978D03*
X851662Y748284D03*
X816356Y784606D03*
X824230Y800354D03*
X882396Y701802D03*
X1006856Y734314D03*
X1039114Y735076D03*
M02*
