M48
;GenerationSoftware,Autodesk,EAGLE,9.6.2*%
;CreationDate,2026-06-04T13:19:57Z*%
FMAT,2
ICI,OFF
METRIC,TZ,000.000
T8C0.350
T7C0.813
T6C1.000
T5C1.016
T4C1.118
T3C1.194
T2C2.540
T1C3.302
%
G90
M71
T1
X137617Y81077
T2
X130251Y2667
X130531Y98374
X78765Y3200
X78410Y98349
T3
X118095Y3581
X108095Y3581
X113095Y3581
X123095Y3581
T4
X120091Y78537
X120091Y81077
X120091Y83617
T5
X113259Y96012
X113259Y93472
X129819Y33376
X113259Y88392
X113259Y85852
X113259Y83312
X129819Y61366
X79400Y41504
X113259Y90932
X130073Y93497
X130073Y90957
X130073Y88417
X118110Y97917
X120650Y97917
X123190Y97917
X129845Y44272
X129845Y49352
X129819Y52375
X129819Y54915
X129819Y57455
X129769Y22428
X129769Y24968
X129769Y27508
X129769Y30048
X129845Y46812
X129819Y35916
X129819Y38456
X129819Y40996
X118135Y73330
X115595Y73330
X113055Y73330
X110515Y73330
X78791Y66091
X78791Y68631
X78791Y71171
X78791Y73711
X78791Y76251
X78791Y78791
X84480Y41504
X84480Y44044
X81940Y41504
X81940Y44044
X79400Y44044
X78892Y85750
X78892Y88290
X78892Y90830
X78892Y93370
X85369Y97714
X87909Y97714
X90449Y97714
X92989Y97714
X95529Y97714
X129819Y66446
X129819Y63906
T6
X85290Y3139
X91290Y3139
X97290Y36739
X79290Y36739
T7
X100203Y91491
X100203Y86665
T8
X85166Y74828
X81636Y78461
X82423Y80035
X129743Y72415
X100686Y73431
X103911Y73508
X96444Y78537
X95174Y75082
X94920Y73482
X97815Y74854
X103734Y68453
X85014Y63322
X95402Y53518
X86868Y33198
X92329Y27102
X84328Y90221
X91846Y82220
X95936Y94361
X100101Y66091
X99644Y69952
X120599Y75362
X88240Y70180
X104496Y46253
X102006Y42748
X107594Y55220
X87351Y10033
X121971Y88697
X126162Y88671
X126187Y70383
X106197Y42088
X84785Y58572
X86868Y44907
X86893Y42113
X87198Y30404
X87757Y75667
X90106Y55893
X92405Y76810
X104445Y88290
X92913Y76022
X89154Y76767
X113106Y77445
X97061Y82796
X121945Y86589
X93015Y67361
X106528Y62459
X122225Y75235
X125273Y90678
X124104Y92837
X108966Y65202
X117272Y57328
X108382Y64110
X116484Y55905
X86932Y74435
X89992Y60249
X92291Y68263
X85065Y69037
X87884Y83845
X87909Y65202
X99466Y48235
X95910Y61773
X92329Y92710
X84049Y73965
X117170Y65659
X116789Y64567
X119939Y57099
X107366Y63348
X115545Y55220
X108610Y44755
X98171Y44907
X86182Y80747
X81102Y77191
X81178Y74397
X81331Y72898
X92913Y84557
X103403Y58826
X101930Y76556
X100559Y75209
X101041Y83998
M30